IKResults
version=1
nRows=11
nColumns=40
inDegrees=yes

Units are S.I. units (second, meters, Newtons, ...)
Angles are in degrees.

endheader
time	pelvis_tilt	pelvis_list	pelvis_rotation	pelvis_tx	pelvis_ty	pelvis_tz	hip_flexion_r	hip_adduction_r	hip_rotation_r	knee_angle_r	knee_angle_r_beta	ankle_angle_r	subtalar_angle_r	mtp_angle_r	hip_flexion_l	hip_adduction_l	hip_rotation_l	knee_angle_l	knee_angle_l_beta	ankle_angle_l	subtalar_angle_l	mtp_angle_l	lumbar_extension	lumbar_bending	lumbar_rotation	arm_flex_r	arm_add_r	arm_rot_r	elbow_flex_r	pro_sup_r	wrist_flex_r	wrist_dev_r	arm_flex_l	arm_add_l	arm_rot_l	elbow_flex_l	pro_sup_l	wrist_flex_l	wrist_dev_l
      2.44000000	     16.49517272	      1.79986532	      3.90724612	      0.21042880	      0.95125523	      1.04094482	    -21.12414969	      1.84491649	    -12.48742332	    -11.18905413	     -0.19528583	     11.25991773	      3.17214630	     -7.11828308	     -1.32048144	      1.60351772	     11.91637447	    -29.60983245	     -0.51678907	     10.14398688	     11.82546492	     -0.95788707	    -23.33299184	     -1.40551852	     -1.99232492	      2.57201764	    -11.16752186	      6.13140487	     33.37641972	     89.95437384	      0.00000000	      0.00000000	      1.72660416	      9.27323697	     16.49350389	     17.09071792	     89.95437384	      0.00000000	      0.00000000
      2.45000000	     16.36155234	      1.92508691	      3.84310421	      0.21553399	      0.95061879	      1.04073046	    -21.23933163	      1.71182025	    -12.30763498	    -11.37473465	     -0.19852657	     11.51738863	      2.90562432	     -7.06829219	     -0.75492175	      1.54058593	     13.10725970	    -28.07362324	     -0.48997716	      9.88607779	     10.79641034	     -1.13473337	    -23.22919267	     -1.57219276	     -1.95379403	      2.63600781	    -11.19749899	      6.11504045	     33.57125279	     89.95437384	      0.00000000	      0.00000000	      1.37354984	      9.31479720	     16.59426105	     16.91112805	     89.95437384	      0.00000000	      0.00000000
      2.46000000	     16.42943598	      2.15824468	      3.59322239	      0.22078602	      0.95032141	      1.04084728	    -21.64837857	      1.44554382	    -11.88335013	    -11.42959799	     -0.19948412	     11.74369800	      2.55629847	     -6.98659716	     -0.52066594	      1.44112320	     14.78564646	    -26.47733021	     -0.46211659	      9.46682354	      9.11616756	     -1.39094392	    -23.36088192	     -1.92989417	     -1.68999118	      2.61088264	    -11.24370987	      6.14822777	     33.85699744	     89.95437384	      0.00000000	      0.00000000	      1.08650230	      9.35583099	     16.84268953	     16.84018106	     89.95437384	      0.00000000	      0.00000000
      2.47000000	     16.40091037	      2.28635599	      3.41031844	      0.22626191	      0.94973106	      1.04068518	    -21.94733126	      1.28546759	    -11.38343466	    -11.57332685	     -0.20199266	     11.91211716	      2.06197050	     -6.84850198	     -0.15852926	      1.39391355	     16.63409415	    -24.84828525	     -0.43368439	      9.20457205	      7.80378421	     -1.84456284	    -23.32549923	     -2.14329830	     -1.48547302	      2.56875730	    -11.35303078	      6.23628005	     34.11010705	     89.95437384	      0.00000000	      0.00000000	      0.70953432	      9.35558365	     17.09575844	     16.82624100	     89.95437384	      0.00000000	      0.00000000
      2.48000000	     16.23619244	      2.51262554	      3.40585223	      0.23134719	      0.94899571	      1.04040774	    -22.05169256	      1.06196626	    -11.22929799	    -11.72015705	     -0.20455533	     12.25085485	      1.76576856	     -6.76411712	      0.43768374	      1.16947817	     17.42427179	    -23.57651931	     -0.41148789	      8.66021293	      6.35133035	     -2.07418399	    -23.20807254	     -2.41603287	     -1.49172427	      2.60407642	    -11.33262192	      6.20749958	     34.22906101	     89.95437384	      0.00000000	      0.00000000	      0.37498527	      9.43212107	     17.09414766	     16.77883246	     89.95437384	      0.00000000	      0.00000000
      2.49000000	     16.31964189	      2.52956057	      3.10868271	      0.23698838	      0.94838357	      1.04056614	    -22.53176952	      1.00253294	    -10.57671150	    -11.72348457	     -0.20461341	     12.34297673	      1.27040325	     -6.46159430	      0.75056305	      1.41894623	     20.00780945	    -22.34874023	     -0.39005910	      8.16705520	      3.87573850	     -3.43159257	    -23.27747071	     -2.56842683	     -1.13893370	      2.52736524	    -11.40648240	      6.22037571	     34.50467547	     89.95437384	      0.00000000	      0.00000000	     -0.06312697	      9.46528716	     17.05330717	     16.88801568	     89.95437384	      0.00000000	      0.00000000
      2.50000000	     16.26262445	      2.77320077	      2.86976350	      0.24235061	      0.94765143	      1.04024059	    -22.74296070	      0.63349747	    -10.36245660	    -11.92283951	     -0.20809281	     12.68313153	      1.07390054	     -6.40515328	      1.11613022	      1.06569649	     21.04546592	    -20.99309509	     -0.36639863	      7.67715809	      2.77500248	     -3.77517139	    -23.26017961	     -2.91089810	     -0.92407564	      2.50156951	    -11.48771757	      6.21814893	     34.68203207	     89.95437384	      0.00000000	      0.00000000	     -0.37772016	      9.43891109	     17.37179979	     16.89953697	     89.95437384	      0.00000000	      0.00000000
      2.51000000	     16.32876175	      2.95256311	      2.60095695	      0.24804323	      0.94698228	      1.04005753	    -23.09741948	      0.33209074	    -10.07890006	    -12.13788639	     -0.21184608	     12.87100067	      1.12909937	     -6.32854554	      1.39238589	      0.94734628	     22.68346689	    -19.92685717	     -0.34778927	      7.05259117	      0.78523010	     -4.50293555	    -23.30696772	     -3.20981563	     -0.66209258	      2.39087122	    -11.57390551	      6.26536779	     34.93480313	     89.95437384	      0.00000000	      0.00000000	     -0.76050884	      9.43397582	     17.64684069	     16.96951915	     89.95437384	      0.00000000	      0.00000000
      2.52000000	     16.22289495	      3.17292692	      2.42899695	      0.25342490	      0.94605649	      1.03968450	    -23.18727954	      0.01002213	     -9.90625070	    -12.45879335	     -0.21744696	     13.34905873	      0.97900427	     -6.34421657	      1.87480305	      0.61701351	     23.52648629	    -18.87588830	     -0.32944640	      6.49974510	     -0.36312055	     -4.86078363	    -23.21900212	     -3.52396175	     -0.51334442	      2.38832419	    -11.56678606	      6.19016397	     34.96737328	     89.95437384	      0.00000000	      0.00000000	     -1.08176248	      9.43538117	     17.86718143	     16.97628241	     89.95437384	      0.00000000	      0.00000000
      2.53000000	     16.26777622	      3.38763989	      2.08634991	      0.25911353	      0.94527448	      1.03945094	    -23.49356272	     -0.37855093	     -9.69132635	    -12.69943788	     -0.22164700	     13.55190095	      1.06810930	     -6.32241630	      2.13680270	      0.35708258	     24.70401777	    -17.89254201	     -0.31228377	      5.82160509	     -1.78009051	     -5.33291626	    -23.26205198	     -3.87288449	     -0.22223689	      2.31618250	    -11.64845696	      6.20084592	     35.15029498	     89.95437384	      0.00000000	      0.00000000	     -1.42147368	      9.38172143	     18.28378485	     17.03960575	     89.95437384	      0.00000000	      0.00000000
      2.54000000	     16.18787502	      3.54584483	      1.93438095	      0.26460131	      0.94430368	      1.03903190	    -23.62905876	     -0.62302012	     -9.37272776	    -13.01959536	     -0.22723481	     13.98892302	      0.97057919	     -6.32829089	      2.52360541	      0.06391560	     25.03268482	    -16.93549480	     -0.29558014	      5.38047068	     -2.78915673	     -5.49701585	    -23.19517234	     -4.11183869	     -0.08077371	      2.32461457	    -11.64436462	      6.12593687	     35.14084483	     89.95437384	      0.00000000	      0.00000000	     -1.70677699	      9.37122631	     18.53152868	     17.01929254	     89.95437384	      0.00000000	      0.00000000
